<svg version="1.1" xmlns="http://www.w3.org/2000/svg" width="360" height="360">

<path d="M0 0 C1.15564453 0.00161133 2.31128906 0.00322266 3.50195312 0.00488281 C12.78275304 0.13716923 20.78513823 1.35516958 29.5625 4.375 C30.5215625 4.67535156 31.480625 4.97570312 32.46875 5.28515625 C43.060726 8.97001537 49.88057557 16.94568215 55.5625 26.375 C60.40305373 36.55854467 62.55804136 46.64953746 63.21875 57.83203125 C63.59340077 60.60359546 64.49391164 62.80183923 65.5625 65.375 C65.6875 68.1875 65.6875 68.1875 65.5625 70.375 C66.7071875 70.50261719 67.851875 70.63023437 69.03125 70.76171875 C73.44222515 71.31502868 77.73184794 72.19507885 82.0625 73.1875 C83.22338135 73.45252319 83.22338135 73.45252319 84.40771484 73.72290039 C86.00636763 74.09007925 87.60451477 74.45946657 89.20214844 74.83105469 C91.46759923 75.35313003 93.73696603 75.85357875 96.0078125 76.3515625 C103.32254666 78.00612576 109.4621588 79.7997441 115.5625 84.375 C115.32519358 88.40920917 115.02839155 90.78204712 112.5 94 C111.530625 94.78375 110.56125 95.5675 109.5625 96.375 C109.07523438 96.79652344 108.58796875 97.21804687 108.0859375 97.65234375 C99.17460647 104.34601477 85.45271475 105.25006078 74.72167969 106.83984375 C71.57852823 107.33134176 71.57852823 107.33134176 68.59619141 108.11181641 C54.6558556 111.37031288 40.42116103 110.78825434 26.19482422 110.6975708 C23.37505815 110.68425327 20.55545325 110.68939355 17.73567009 110.69442463 C-4.5432923 110.72463612 -26.54698314 109.65894544 -48.5625 106.0625 C-49.22841156 105.95584015 -49.89432312 105.8491803 -50.58041382 105.73928833 C-81.52659464 100.77153114 -81.52659464 100.77153114 -95.203125 95.26171875 C-97.44374064 94.37252338 -99.68286533 93.72168486 -102 93.0625 C-107.67533324 91.22545723 -113.21313656 87.59936344 -117.4375 83.375 C-117.47830783 81.37541636 -117.48004356 79.37454746 -117.4375 77.375 C-116.00363232 76.76226262 -114.56508377 76.16048191 -113.125 75.5625 C-112.32449219 75.22605469 -111.52398437 74.88960938 -110.69921875 74.54296875 C-102.13492076 71.4762321 -93.40113229 69.69017228 -84.4375 68.25 C-82.93316406 67.99669922 -82.93316406 67.99669922 -81.3984375 67.73828125 C-74.7612726 66.6492374 -68.14304973 65.89144613 -61.4375 65.375 C-61.29501831 64.23454224 -61.29501831 64.23454224 -61.1496582 63.07104492 C-60.70119927 59.56561311 -60.22578138 56.06432388 -59.75 52.5625 C-59.60111328 51.36689453 -59.45222656 50.17128906 -59.29882812 48.93945312 C-58.0527693 39.97271611 -56.25033643 30.8198268 -49.4375 24.375 C-48.97730469 23.57707031 -48.51710938 22.77914062 -48.04296875 21.95703125 C-41.48322929 11.40718263 -27.47770759 5.38150881 -16.23046875 1.17578125 C-10.80964883 0.0313239 -5.52723591 -0.00796432 0 0 Z " fill="#AD192B" transform="translate(184.4375,102.625)" data-index="1"></path>
<path d="M0 0 C1.14839355 -0.00128906 2.29678711 -0.00257812 3.47998047 -0.00390625 C12.69686642 0.10999432 20.83216299 1.42092826 29.5625 4.375 C29.5625 5.035 29.5625 5.695 29.5625 6.375 C30.5525 6.705 31.5425 7.035 32.5625 7.375 C32.5625 8.035 32.5625 8.695 32.5625 9.375 C33.2225 9.375 33.8825 9.375 34.5625 9.375 C40.85904942 15.67154942 44.06778506 24.6350361 44.5625 33.375 C45.2225 33.375 45.8825 33.375 46.5625 33.375 C48.25194836 42.45578495 48.81158976 51.14484056 48.5625 60.375 C47.9025 60.375 47.2425 60.375 46.5625 60.375 C46.748125 61.179375 46.93375 61.98375 47.125 62.8125 C47.3415625 64.0809375 47.3415625 64.0809375 47.5625 65.375 C45.85184573 67.08565427 43.5202769 66.99120123 41.1875 67.375 C40.21039063 67.54 39.23328125 67.705 38.2265625 67.875 C19.58601949 70.41869883 0.65154305 70.47705994 -18.1300354 70.55123901 C-19.84585276 70.55861384 -21.56166009 70.56917408 -23.2774353 70.58328247 C-35.46338704 70.67419223 -47.34465715 69.87925454 -59.4375 68.375 C-59.7328681 54.25777352 -60.00412581 39.85880994 -52.4375 27.375 C-51.44147083 26.37104487 -50.44134365 25.37114152 -49.4375 24.375 C-48.97730469 23.57707031 -48.51710937 22.77914062 -48.04296875 21.95703125 C-41.48322929 11.40718263 -27.47770759 5.38150881 -16.23046875 1.17578125 C-10.80928126 0.0312463 -5.52749594 -0.00637635 0 0 Z " fill="#D2BD62" transform="translate(184.4375,102.625)" data-index="2" style="opacity: 1;"></path>
<path d="M0 0 C0.17273929 1.3325602 0.33777128 2.66611942 0.5 4 C0.5928125 4.7425 0.685625 5.485 0.78125 6.25 C1.06719704 9.84476278 1.03055964 13.39396264 1 17 C1.57331055 17.08040527 2.14662109 17.16081055 2.73730469 17.24365234 C5.4084269 17.6191952 8.07921135 17.99709249 10.75 18.375 C11.65105469 18.50132812 12.55210937 18.62765625 13.48046875 18.7578125 C14.38925781 18.88671875 15.29804688 19.015625 16.234375 19.1484375 C17.18683105 19.2827417 18.13928711 19.4170459 19.12060547 19.55541992 C20.97509177 19.84175361 22.82447091 20.1647582 24.66455078 20.5324707 C35.37729881 22.63132183 46.21086382 22.3808863 57.0859375 22.45629883 C66.96380886 22.53771969 76.18260861 22.85370162 85.80908203 25.22241211 C91.06582264 26.50341585 96.40442452 27.24962463 101.75 28.0625 C109.20728061 29.20729832 116.61570569 30.44741005 124 32 C122.67145025 35.06007195 122.20000038 35.88444423 119.1875 37.625 C108.02718127 41.82770182 95.61238818 41.32476226 83.875 41.25 C83.0227182 41.24723053 82.1704364 41.24446106 81.29232788 41.24160767 C67.28804865 41.18905787 53.30312622 40.79309554 39.3125 40.1875 C38.44341003 40.15265503 37.57432007 40.11781006 36.67889404 40.08190918 C19.73565497 39.38148624 2.89488707 37.49878535 -13.625 33.5625 C-14.54176514 33.34932129 -15.45853027 33.13614258 -16.40307617 32.91650391 C-21.99929125 31.57987118 -27.42043916 30.04011368 -32.765625 27.88671875 C-35.00624064 26.99752338 -37.24536533 26.34668486 -39.5625 25.6875 C-45.23783324 23.85045723 -50.77563656 20.22436344 -55 16 C-55.04080783 14.00041636 -55.04254356 11.99954746 -55 10 C-48.13314692 7.06557472 -41.27345163 4.70588685 -34 3 C-33.28521484 2.83226074 -32.57042969 2.66452148 -31.83398438 2.49169922 C-25.38072088 1.07828587 -19.09290752 0.58824768 -12.5 0.375 C-11.51257813 0.33632812 -10.52515625 0.29765625 -9.5078125 0.2578125 C-2.78627232 0 -2.78627232 0 0 0 Z " fill="#D1BD65" transform="translate(122,170)" data-index="3" style="opacity: 1;"></path>
<path d="M0 0 C6.18160017 -0.1705269 11.56782706 0.29054988 17.5625 1.75 C18.33190918 1.93119385 19.10131836 2.1123877 19.89404297 2.29907227 C21.48230513 2.67506836 23.06955711 3.05535762 24.65576172 3.43994141 C26.91270407 3.97914426 29.17472884 4.4840163 31.44140625 4.98046875 C38.75949758 6.62857389 44.89834291 8.42375718 51 13 C50.76269358 17.03420917 50.46589155 19.40704712 47.9375 22.625 C46.968125 23.40875 45.99875 24.1925 45 25 C44.51273438 25.42152344 44.02546875 25.84304687 43.5234375 26.27734375 C34.61210647 32.97101477 20.89021475 33.87506078 10.15917969 35.46484375 C7.01602823 35.95634176 7.01602823 35.95634176 4.03369141 36.73681641 C-9.9066444 39.99531288 -24.14133897 39.41325434 -38.36767578 39.3225708 C-41.18738537 39.30925353 -44.00693351 39.3143864 -46.82666016 39.31944466 C-86.02968936 39.37222708 -86.02968936 39.37222708 -102 36 C-102 35.67 -102 35.34 -102 35 C-101.08863281 35.03029297 -100.17726562 35.06058594 -99.23828125 35.09179688 C-81.58198836 35.66277152 -63.92150844 36.12836734 -46.25561523 36.23217773 C-44.56839483 36.24388675 -42.88120104 36.26081592 -41.1940918 36.28344727 C-21.68037731 36.83789909 -21.68037731 36.83789909 -4 30 C-3.67 29.34 -3.34 28.68 -3 28 C-4.26972656 27.896875 -5.53945312 27.79375 -6.84765625 27.6875 C-14.27421756 26.94392749 -21.61436276 25.65784885 -28.97045898 24.41601562 C-31.45551218 23.99696262 -33.94153773 23.58408401 -36.42773438 23.171875 C-38.01308148 22.90661222 -39.59837017 22.64099997 -41.18359375 22.375 C-41.9241954 22.25205566 -42.66479706 22.12911133 -43.42784119 22.00244141 C-46.38257503 21.50090992 -49.15131061 20.94956313 -52 20 C-53.36515314 19.88734453 -54.73477212 19.82417414 -56.10424805 19.79467773 C-56.92487228 19.77473251 -57.74549652 19.75478729 -58.59098816 19.73423767 C-59.9129998 19.70916893 -59.9129998 19.70916893 -61.26171875 19.68359375 C-62.16751175 19.66281265 -63.07330475 19.64203156 -64.00654602 19.62062073 C-66.90012016 19.55523442 -69.79378507 19.49629096 -72.6875 19.4375 C-74.64909793 19.3943044 -76.61068668 19.35068977 -78.57226562 19.30664062 C-83.38141739 19.19956418 -88.19066046 19.09826586 -93 19 C-93 18.67 -93 18.34 -93 18 C-91.8032666 17.98541748 -90.6065332 17.97083496 -89.37353516 17.95581055 C-43.45868161 20.27587541 -43.45868161 20.27587541 -1 8 C-0.30367785 6.04634555 -0.30367785 6.04634555 -0.25 3.875 C-0.1675 2.59625 -0.085 1.3175 0 0 Z " fill="#887941" transform="translate(249,174)" data-index="4" style="opacity: 1;"></path>
<path d="M0 0 C0 0.66 0 1.32 0 2 C-0.66 2 -1.32 2 -2 2 C-2 6.29 -2 10.58 -2 15 C-2.99 15 -3.98 15 -5 15 C-5 15.66 -5 16.32 -5 17 C-6.65 17 -8.3 17 -10 17 C-10 17.99 -10 18.98 -10 20 C-8.95199219 19.87431641 -8.95199219 19.87431641 -7.8828125 19.74609375 C-6.97273438 19.64425781 -6.06265625 19.54242188 -5.125 19.4375 C-4.22007813 19.33308594 -3.31515625 19.22867188 -2.3828125 19.12109375 C0 19 0 19 2 20 C2 20.66 2 21.32 2 22 C2.969375 22.144375 3.93875 22.28875 4.9375 22.4375 C8 23 8 23 9 24 C10.67542976 23.71395102 12.34385343 23.38218767 14 23 C14 25.66666667 14 28.33333333 14 31 C12.35 31.33 10.7 31.66 9 32 C11.23259665 33.22772827 11.23259665 33.22772827 14 34 C15.67745682 33.36096883 17.34561387 32.69658363 19 32 C20.485 32.99 20.485 32.99 22 34 C22 34.66 22 35.32 22 36 C20.68 36 19.36 36 18 36 C18 36.66 18 37.32 18 38 C8.14332959 37.96697933 -1.14232677 36.31437447 -10.75 34.1875 C-11.88542236 33.93919434 -13.02084473 33.69088867 -14.19067383 33.43505859 C-20.51735394 31.98903918 -26.55754693 30.22720367 -32.61401367 27.89111328 C-34.90897578 27.03399554 -37.2023772 26.33989834 -39.5625 25.6875 C-45.23783324 23.85045723 -50.77563656 20.22436344 -55 16 C-55.04080783 14.00041636 -55.04254356 11.99954746 -55 10 C-48.13314692 7.06557472 -41.27345163 4.70588685 -34 3 C-33.28521484 2.83226074 -32.57042969 2.66452148 -31.83398438 2.49169922 C-25.38072088 1.07828587 -19.09290752 0.58824768 -12.5 0.375 C-11.51257813 0.33632812 -10.52515625 0.29765625 -9.5078125 0.2578125 C-2.78627232 0 -2.78627232 0 0 0 Z " fill="#CFBC63" transform="translate(122,170)" data-index="5"></path>
<path d="M0 0 C9.80760931 1.44229549 16.27252874 7.50489144 22.125 15.0625 C31.12558585 27.90054493 33.43240375 41.67368919 33 57 C31.0636296 57.50435694 29.12585854 58.00333874 27.1875 58.5 C26.10855469 58.7784375 25.02960938 59.056875 23.91796875 59.34375 C21 60 21 60 18 60 C17.505 57.525 17.505 57.525 17 55 C17.66 55 18.32 55 19 55 C18.85820962 52.77057252 18.71140302 50.54146372 18.5625 48.3125 C18.48128906 47.07113281 18.40007812 45.82976562 18.31640625 44.55078125 C18.05449535 41.61155892 17.58431013 38.88259663 17 36 C16.88321201 33.32321927 16.9545494 30.68158543 17 28 C16.34 28 15.68 28 15 28 C14.84144531 27.39414063 14.68289062 26.78828125 14.51953125 26.1640625 C12.71052743 19.66763996 10.15888656 13.94245987 7 8 C6.32970029 6.66848938 5.6617827 5.33576416 5 4 C4.34 4 3.68 4 3 4 C1.375 2 1.375 2 0 0 Z " fill="#8B7C3E" transform="translate(214,108)" data-index="6"></path>
<path d="M0 0 C0.33 0 0.66 0 1 0 C1 3.3 1 6.6 1 10 C0.34 10 -0.32 10 -1 10 C-1 10.66 -1 11.32 -1 12 C-1.99 12 -2.98 12 -4 12 C-4 12.66 -4 13.32 -4 14 C-5.65 14.66 -7.3 15.32 -9 16 C-8.01 17.485 -8.01 17.485 -7 19 C-7.875 21.6875 -7.875 21.6875 -9 24 C-7.35 24 -5.7 24 -4 24 C-4 24.33 -4 24.66 -4 25 C-5.65 25 -7.3 25 -9 25 C-9 25.66 -9 26.32 -9 27 C-18.65354111 25.92107482 -28.23043261 24.52971252 -37.8125 22.9375 C-38.86824219 22.7631543 -39.92398438 22.58880859 -41.01171875 22.40917969 C-42.00429687 22.24192383 -42.996875 22.07466797 -44.01953125 21.90234375 C-44.90745361 21.75273193 -45.79537598 21.60312012 -46.71020508 21.44897461 C-49 21 -49 21 -52 20 C-53.36515314 19.88734453 -54.73477212 19.82417414 -56.10424805 19.79467773 C-56.92487228 19.77473251 -57.74549652 19.75478729 -58.59098816 19.73423767 C-59.9129998 19.70916893 -59.9129998 19.70916893 -61.26171875 19.68359375 C-62.16751175 19.66281265 -63.07330475 19.64203156 -64.00654602 19.62062073 C-66.90012016 19.55523442 -69.79378507 19.49629096 -72.6875 19.4375 C-74.64909793 19.3943044 -76.61068668 19.35068977 -78.57226562 19.30664062 C-83.38141739 19.19956418 -88.19066046 19.09826586 -93 19 C-93 18.67 -93 18.34 -93 18 C-91.8032666 17.98541748 -90.6065332 17.97083496 -89.37353516 17.95581055 C-43.45868161 20.27587541 -43.45868161 20.27587541 -1 8 C-0.30367785 6.04634555 -0.30367785 6.04634555 -0.25 3.875 C-0.1675 2.59625 -0.085 1.3175 0 0 Z " fill="#8C7B3F" transform="translate(249,174)" data-index="7"></path>
<path d="M0 0 C0.33 0.66 0.66 1.32 1 2 C2.32 1.34 3.64 0.68 5 0 C5 5.28 5 10.56 5 16 C4.34 16 3.68 16 3 16 C3 14.02 3 12.04 3 10 C2.34 10 1.68 10 1 10 C1.01160156 10.96421875 1.02320313 11.9284375 1.03515625 12.921875 C1.04417969 14.18515625 1.05320313 15.4484375 1.0625 16.75 C1.07410156 18.00296875 1.08570313 19.2559375 1.09765625 20.546875 C1.02021027 23.28536501 0.82780815 25.41880293 0 28 C1.65 28 3.3 28 5 28 C5 28.33 5 28.66 5 29 C-4.01470449 28.46839258 -13.01236323 27.89495536 -22 27 C-22.02726927 24.64575325 -22.04696719 22.29183038 -22.0625 19.9375 C-22.07990234 17.97103516 -22.07990234 17.97103516 -22.09765625 15.96484375 C-22.00502359 12.20395786 -21.74686737 8.68736405 -21 5 C-20.34 4.67 -19.68 4.34 -19 4 C-18.67 6.97 -18.34 9.94 -18 13 C-17.34 13 -16.68 13 -16 13 C-15.34 12.34 -14.68 11.68 -14 11 C-13.34 11 -12.68 11 -12 11 C-11.67 11.66 -11.34 12.32 -11 13 C-10.87882813 12.28972656 -10.75765625 11.57945312 -10.6328125 10.84765625 C-10.38144531 9.46900391 -10.38144531 9.46900391 -10.125 8.0625 C-9.96257812 7.14597656 -9.80015625 6.22945312 -9.6328125 5.28515625 C-9.42398438 4.53105469 -9.21515625 3.77695313 -9 3 C-8.34 2.67 -7.68 2.34 -7 2 C-7 3.98 -7 5.96 -7 8 C-7.66 8 -8.32 8 -9 8 C-8.67 9.98 -8.34 11.96 -8 14 C-5.20448001 11.93374609 -4.98932074 10.93117808 -4.4375 7.375 C-4.293125 6.26125 -4.14875 5.1475 -4 4 C-3.34 3.67 -2.68 3.34 -2 3 C-2.14026283 5.31284456 -2.28735558 7.62527591 -2.4375 9.9375 C-2.51871094 11.22527344 -2.59992188 12.51304687 -2.68359375 13.83984375 C-3 17 -3 17 -4 18 C-4.04092937 20.33297433 -4.04241723 22.66705225 -4 25 C-3.01 25 -2.02 25 -1 25 C-1.09539062 24.35933594 -1.19078125 23.71867187 -1.2890625 23.05859375 C-2.01617349 17.38543708 -1.73580191 13.51372372 0 8 C0.16689472 5.3058424 0.09483895 2.70290998 0 0 Z " fill="#C6B061" transform="translate(147,144)" data-index="8"></path>
<path d="M0 0 C3.00617269 3.00617269 2.59585316 5.82381598 3 10 C4.65 10 6.3 10 8 10 C8 10.33 8 10.66 8 11 C6.02 11 4.04 11 2 11 C2.1546875 12.8871875 2.1546875 12.8871875 2.3125 14.8125 C2.30078125 17.02734375 2.30078125 17.02734375 2 19 C-2.35975118 23.08726673 -9.21282197 24 -15 24 C-14.98839844 23.26394531 -14.97679687 22.52789062 -14.96484375 21.76953125 C-14.95582031 20.79371094 -14.94679687 19.81789062 -14.9375 18.8125 C-14.92589844 17.84957031 -14.91429687 16.88664062 -14.90234375 15.89453125 C-14.9339911 12.62396939 -14.9339911 12.62396939 -16 8 C-21.28 8.66 -26.56 9.32 -32 10 C-32 9.34 -32 8.68 -32 8 C-27.97981356 7.18427743 -23.95874228 6.37300025 -19.9375 5.5625 C-18.80376953 5.33240234 -17.67003906 5.10230469 -16.50195312 4.86523438 C-11.01358871 3.76116107 -5.55514164 2.70144749 0 2 C0 1.34 0 0.68 0 0 Z " fill="#83151E" transform="translate(247,163)" data-index="9"></path>
<path d="M0 0 C0.33 0 0.66 0 1 0 C1 3.63 1 7.26 1 11 C2.32 11 3.64 11 5 11 C4.34 12.65 3.68 14.3 3 16 C2.34 16 1.68 16 1 16 C1 19.3 1 22.6 1 26 C13.88919364 27.55559234 26.7004079 28.15438788 39.6796875 28.1328125 C41.14592505 28.13348916 42.61216249 28.13446217 44.07839966 28.13571167 C47.12893762 28.13717259 50.17944599 28.1350871 53.22998047 28.13037109 C57.09100145 28.12468506 60.9519527 28.12795607 64.81297112 28.13394356 C67.83489482 28.13760176 70.85680271 28.13638662 73.87872696 28.13381577 C75.3001214 28.13316041 76.72151739 28.13392466 78.14291 28.13629532 C88.13677063 28.14931047 98.03812409 27.72553244 108 27 C108 27.33 108 27.66 108 28 C104.91772323 28.48612169 101.83401275 28.96252669 98.75 29.4375 C97.89664063 29.57220703 97.04328125 29.70691406 96.1640625 29.84570312 C85.32879983 31.50333659 74.57673093 32.15649818 63.62109375 32.16796875 C62.48777115 32.17129715 61.35444855 32.17462555 60.18678284 32.17805481 C57.80950319 32.18308012 55.43221659 32.18546451 53.05493164 32.18530273 C49.44340347 32.18749641 45.83217777 32.20571911 42.22070312 32.22460938 C39.89583436 32.22754291 37.57096417 32.22952797 35.24609375 32.23046875 C33.64875648 32.24124702 33.64875648 32.24124702 32.01914978 32.25224304 C25.13119598 32.23149814 18.73463272 31.40486683 12 30 C10.329375 29.73896484 10.329375 29.73896484 8.625 29.47265625 C7.75875 29.33730469 6.8925 29.20195312 6 29.0625 C5.113125 28.92972656 4.22625 28.79695313 3.3125 28.66015625 C0.54173497 27.86917772 -0.46163471 27.45537132 -2 25 C-2.2172101 22.35003674 -2.28351554 19.94923442 -2.1875 17.3125 C-2.17396484 16.61060547 -2.16042969 15.90871094 -2.14648438 15.18554688 C-2.11120182 13.45670171 -2.05739583 11.72825235 -2 10 C-2.99 10.495 -2.99 10.495 -4 11 C-6.37402501 11.07116382 -8.75000677 11.08409085 -11.125 11.0625 C-12.40632813 11.05347656 -13.68765625 11.04445312 -15.0078125 11.03515625 C-16.48894531 11.01775391 -16.48894531 11.01775391 -18 11 C-18 10.67 -18 10.34 -18 10 C-9.585 9.01 -9.585 9.01 -1 8 C-0.67 5.36 -0.34 2.72 0 0 Z " fill="#982522" transform="translate(124,160)" data-index="10"></path>
<path d="M0 0 C0.66 0 1.32 0 2 0 C2.84768402 5.0861041 3.04298983 9.84122071 3 15 C3.57331055 15.08040527 4.14662109 15.16081055 4.73730469 15.24365234 C7.4084269 15.6191952 10.07921135 15.99709249 12.75 16.375 C14.10158203 16.56449219 14.10158203 16.56449219 15.48046875 16.7578125 C16.38925781 16.88671875 17.29804688 17.015625 18.234375 17.1484375 C19.18473633 17.2829834 20.13509766 17.4175293 21.11425781 17.55615234 C22.98909613 17.8445158 24.85924183 18.16602143 26.72167969 18.52587891 C36.03988303 20.30563307 45.29551948 20.44512879 54.75 20.625 C56.42970555 20.66327834 58.10939355 20.70233538 59.7890625 20.7421875 C63.85922861 20.83708934 67.92948588 20.92149996 72 21 C72 21.33 72 21.66 72 22 C62.49410306 22.78283857 53.03755668 23.10743544 43.5 23.125 C42.48615234 23.12951172 41.47230469 23.13402344 40.42773438 23.13867188 C34.85752199 23.12764175 29.50961862 22.82644279 24 22 C24 21.34 24 20.68 24 20 C23.03900391 20.19916016 23.03900391 20.19916016 22.05859375 20.40234375 C19.37524389 20.95021101 16.68789735 21.47495883 14 22 C13.30132812 22.15210938 12.60265625 22.30421875 11.8828125 22.4609375 C10.0625 22.8125 10.0625 22.8125 7 23 C5.0625 21.6875 5.0625 21.6875 4 20 C4 19.34 4 18.68 4 18 C0.04 18 -3.92 18 -8 18 C-8 17.01 -8 16.02 -8 15 C-6.35 15 -4.7 15 -3 15 C-3 14.34 -3 13.68 -3 13 C-2.01 13 -1.02 13 0 13 C0 8.71 0 4.42 0 0 Z " fill="#E9B26E" transform="translate(120,172)" data-index="11"></path>
<path d="M0 0 C0.80139404 0.03029297 1.60278809 0.06058594 2.4284668 0.09179688 C6.51450386 0.23913335 10.6007768 0.37326635 14.6875 0.5 C15.46623474 0.52434113 16.24496948 0.54868225 17.04730225 0.57376099 C29.0102485 0.93201109 40.96587152 1.03161326 52.93359375 0.99609375 C53.62013975 0.99434269 54.30668575 0.99259163 55.01403618 0.99078751 C61.96849432 0.97273415 68.9227124 0.94507393 75.87698078 0.88981533 C79.13930538 0.86612027 82.40168596 0.85435032 85.6640625 0.83984375 C86.86562485 0.82634384 88.06718719 0.81284393 89.30516052 0.79893494 C90.40795853 0.79559647 91.51075653 0.792258 92.64697266 0.78881836 C93.61236969 0.78136093 94.57776672 0.7739035 95.57241821 0.76622009 C98 1 98 1 101 3 C93.68384426 4.14457649 86.4574151 4.1615564 79.0625 4.16796875 C77.69653287 4.17119423 76.33056607 4.17455919 74.96459961 4.17805481 C72.10008957 4.18402448 69.23560956 4.18589752 66.37109375 4.18530273 C63.48561217 4.1852223 60.60029212 4.19203339 57.71484375 4.20581055 C16.12637598 4.40149071 16.12637598 4.40149071 0 1 C0 0.67 0 0.34 0 0 Z " fill="#7E754F" transform="translate(147,209)" data-index="12" style="opacity: 1;"></path>
<path d="M0 0 C2.12493141 -0.02693575 4.24995912 -0.04636628 6.375 -0.0625 C7.55835937 -0.07410156 8.74171875 -0.08570313 9.9609375 -0.09765625 C13 0 13 0 15 1 C15 1.66 15 2.32 15 3 C15.969375 3.144375 16.93875 3.28875 17.9375 3.4375 C21 4 21 4 22 5 C23.67542976 4.71395102 25.34385343 4.38218767 27 4 C27 6.66666667 27 9.33333333 27 12 C25.85402344 11.855625 24.70804688 11.71125 23.52734375 11.5625 C21.99742285 11.37477964 20.46747339 11.18729203 18.9375 11 C18.18533203 10.90460938 17.43316406 10.80921875 16.65820312 10.7109375 C13.2248286 10.29477089 9.97027507 10.00043176 6.50390625 10.05078125 C2.15692504 9.98778152 -1.77774497 9.16159407 -6 8.1875 C-6.76828125 8.02185547 -7.5365625 7.85621094 -8.328125 7.68554688 C-13.17436709 6.59349402 -17.49336308 5.09151102 -22 3 C-19.31024861 1.6551243 -18.10708579 2.28078002 -15.2109375 2.99609375 C-14.26992187 3.22490234 -13.32890625 3.45371094 -12.359375 3.68945312 C-10.88210937 4.05973633 -10.88210937 4.05973633 -9.375 4.4375 C-8.38242188 4.68048828 -7.38984375 4.92347656 -6.3671875 5.17382812 C-3.90985792 5.77634643 -1.45430967 6.38531647 1 7 C1 6.34 1 5.68 1 5 C-1.31 4.67 -3.62 4.34 -6 4 C-6 3.67 -6 3.34 -6 3 C-0.32644329 3.61726196 5.33861055 4.27945952 11 5 C11 5.66 11 6.32 11 7 C11.66 7 12.32 7 13 7 C13 5.35 13 3.7 13 2 C12.34 2 11.68 2 11 2 C11 2.66 11 3.32 11 4 C7.37 3.34 3.74 2.68 0 2 C0 1.34 0 0.68 0 0 Z " fill="#B6A041" transform="translate(109,189)" data-index="13" style="opacity: 1;"></path>
<path d="M0 0 C1.67542976 0.28604898 3.34385343 0.61781233 5 1 C4.76269358 5.03420917 4.46589155 7.40704712 1.9375 10.625 C-7.26374651 18.06430568 -7.26374651 18.06430568 -12.375 17.875 C-13.57125 17.58625 -14.7675 17.2975 -16 17 C-17.81003403 16.79002542 -19.62289473 16.60339218 -21.4375 16.4375 C-22.30246094 16.35371094 -23.16742188 16.26992187 -24.05859375 16.18359375 C-24.69925781 16.12300781 -25.33992188 16.06242187 -26 16 C-26 15.34 -26 14.68 -26 14 C-25.01 13.67 -24.02 13.34 -23 13 C-24.98 13 -26.96 13 -29 13 C-28.67 12.34 -28.34 11.68 -28 11 C-26.35 11 -24.7 11 -23 11 C-23 10.34 -23 9.68 -23 9 C-25.64 9 -28.28 9 -31 9 C-27.73454239 7.11608215 -24.71888239 6.50712033 -21 6 C-21.33 6.99 -21.66 7.98 -22 9 C-18.535 8.505 -18.535 8.505 -15 8 C-15 8.66 -15 9.32 -15 10 C-16.98 10.33 -18.96 10.66 -21 11 C-21 11.66 -21 12.32 -21 13 C-16.70512861 12.08453989 -12.49702305 11.16005827 -8.3125 9.8125 C-4.77600464 8.94505774 -2.50684365 9.14467228 1 10 C1 7.36 1 4.72 1 2 C0.34 1.67 -0.32 1.34 -1 1 C-0.67 0.67 -0.34 0.34 0 0 Z " fill="#827647" transform="translate(295,186)" data-index="14"></path>
<path d="M0 0 C1.17498047 0.00064453 2.34996094 0.00128906 3.56054688 0.00195312 C13.01375558 0.05054186 13.01375558 0.05054186 16.8125 1.1875 C16.8125 1.8475 16.8125 2.5075 16.8125 3.1875 C19.1225 3.5175 21.4325 3.8475 23.8125 4.1875 C20.6316925 5.13876953 17.87414087 5.25988559 14.5625 5.1875 C9.94492732 5.13472774 5.37415172 5.23863932 0.76171875 5.4765625 C-0.30852539 5.53070313 -1.37876953 5.58484375 -2.48144531 5.640625 C-4.64143205 5.75420662 -6.80098275 5.87644784 -8.95996094 6.0078125 C-9.96446289 6.059375 -10.96896484 6.1109375 -12.00390625 6.1640625 C-12.90568604 6.21643066 -13.80746582 6.26879883 -14.73657227 6.32275391 C-17.38614175 6.176538 -18.92863546 5.53722503 -21.1875 4.1875 C-20.1875 2.1875 -20.1875 2.1875 -17.44921875 1.07421875 C-11.74788886 -0.4118823 -5.84612509 -0.06153816 0 0 Z " fill="#B3A565" transform="translate(185.1875,102.8125)" data-index="15"></path>
<path d="M0 0 C0.66 0.33 1.32 0.66 2 1 C2.59765625 2.92578125 2.59765625 2.92578125 3.0625 5.3125 C3.21847656 6.09238281 3.37445313 6.87226563 3.53515625 7.67578125 C3.68855469 8.44277344 3.84195313 9.20976562 4 10 C4.32529853 11.33531635 4.65593093 12.66939662 5 14 C4.34 14 3.68 14 3 14 C2.67 14.66 2.34 15.32 2 16 C3.32 16 4.64 16 6 16 C6 11.38 6 6.76 6 2 C8.12508244 5.18762365 8.5020163 7.26512223 9 11 C8.34 11 7.68 11 7 11 C7.185625 11.804375 7.37125 12.60875 7.5625 13.4375 C7.706875 14.283125 7.85125 15.12875 8 16 C5.92574018 18.07425982 1.9203982 17.77424672 -0.9375 18.125 C-1.67935547 18.22425781 -2.42121094 18.32351562 -3.18554688 18.42578125 C-8.75484953 19.12257524 -8.75484953 19.12257524 -11 18 C-11 15.69 -11 13.38 -11 11 C-8.25 9.375 -8.25 9.375 -5 8 C-2.625 8.8125 -2.625 8.8125 -1 10 C-0.24572703 5.02093741 -0.24572703 5.02093741 0 0 Z " fill="#D7B760" transform="translate(224,152)" data-index="16"></path>
<path d="M0 0 C0.94875 0.04125 1.8975 0.0825 2.875 0.125 C2.875 0.785 2.875 1.445 2.875 2.125 C13.435 2.125 23.995 2.125 34.875 2.125 C34.875 3.115 34.875 4.105 34.875 5.125 C28.52124888 5.1503261 22.16751074 5.16785678 15.8137207 5.17993164 C13.65160638 5.18496472 11.48949547 5.19179169 9.32739258 5.20043945 C6.22215941 5.21254979 3.1169712 5.21823852 0.01171875 5.22265625 C-1.44153557 5.23039818 -1.44153557 5.23039818 -2.92414856 5.23829651 C-3.8248558 5.23837204 -4.72556305 5.23844757 -5.65356445 5.23852539 C-6.84270195 5.24185631 -6.84270195 5.24185631 -8.05586243 5.24525452 C-10.125 5.125 -10.125 5.125 -13.125 4.125 C-13.125 3.465 -13.125 2.805 -13.125 2.125 C-11.84625 2.16625 -10.5675 2.2075 -9.25 2.25 C-7.10628508 2.36712873 -7.10628508 2.36712873 -5.125 2.125 C-3.125 0.125 -3.125 0.125 0 0 Z " fill="#D5BD57" transform="translate(157.125,194.875)" data-index="17" style="opacity: 1;"></path>
<path d="M0 0 C1.921539 0.00022659 1.921539 0.00022659 3.88189697 0.00045776 C5.27510738 0.01067027 6.6683162 0.02110225 8.06152344 0.03173828 C9.4907003 0.03547014 10.91987972 0.0383163 12.34906006 0.04031372 C16.10395415 0.04793659 19.85869263 0.06757339 23.61352539 0.08972168 C27.44773249 0.11020919 31.28196483 0.11932164 35.11621094 0.12939453 C42.63451092 0.15082066 50.15268284 0.18494022 57.67089844 0.22705078 C57.67089844 0.55705078 57.67089844 0.88705078 57.67089844 1.22705078 C51.86173357 2.17532324 46.11178711 2.54997871 40.23339844 2.78955078 C39.21656982 2.83128418 38.19974121 2.87301758 37.15209961 2.91601562 C27.92944152 3.25258392 18.71110101 3.33618684 9.48339844 3.35205078 C8.4302092 3.35593307 8.4302092 3.35593307 7.35574341 3.3598938 C5.34231406 3.36576386 3.3288652 3.36296871 1.31542969 3.35986328 C-0.42710083 3.35817139 -0.42710083 3.35817139 -2.20483398 3.35644531 C-5.03396258 3.23927424 -7.57903814 2.87567799 -10.32910156 2.22705078 C-6.83358493 0.07930334 -4.06160113 -0.01599056 0 0 Z " fill="#E5B177" transform="translate(157.3291015625,169.77294921875)" data-index="18"></path>
<path d="M0 0 C0.33 0 0.66 0 1 0 C1 1.98 1 3.96 1 6 C0.34 6 -0.32 6 -1 6 C-0.67 7.98 -0.34 9.96 0 12 C2.79551999 9.93374609 3.01067926 8.93117808 3.5625 5.375 C3.706875 4.26125 3.85125 3.1475 4 2 C4.66 1.67 5.32 1.34 6 1 C5.85973717 3.31284456 5.71264442 5.62527591 5.5625 7.9375 C5.48128906 9.22527344 5.40007812 10.51304687 5.31640625 11.83984375 C5 15 5 15 4 16 C3.92851801 17.35243917 3.91600546 18.70834367 3.9375 20.0625 C3.958125 21.361875 3.97875 22.66125 4 24 C1.36 23.67 -1.28 23.34 -4 23 C-3.67 19.7 -3.34 16.4 -3 13 C-4.65 13.33 -6.3 13.66 -8 14 C-7.67 12.35 -7.34 10.7 -7 9 C-6.01 9 -5.02 9 -4 9 C-3.67 9.66 -3.34 10.32 -3 11 C-2.86722656 10.28972656 -2.73445312 9.57945312 -2.59765625 8.84765625 C-2.42105469 7.92855469 -2.24445313 7.00945312 -2.0625 6.0625 C-1.88847656 5.14597656 -1.71445313 4.22945312 -1.53515625 3.28515625 C-1 1 -1 1 0 0 Z " fill="#C5B051" transform="translate(139,146)" data-index="19"></path>
<path d="M0 0 C0 0.66 0 1.32 0 2 C-13.10497928 2.85235638 -26.18393674 3.10998442 -39.3125 3.125 C-40.07825348 3.12749756 -40.84400696 3.12999512 -41.63296509 3.13256836 C-43.85561519 3.1385174 -46.07812924 3.13694418 -48.30078125 3.1328125 C-49.59153564 3.13168457 -50.88229004 3.13055664 -52.2121582 3.12939453 C-56.21215297 2.99275275 -60.03883811 2.5535128 -64 2 C-64 1.67 -64 1.34 -64 1 C-21.1979874 -0.19388403 -21.1979874 -0.19388403 0 0 Z " fill="#952C0E" transform="translate(208,172)" data-index="20"></path>
<path d="M0 0 C0.33 0 0.66 0 1 0 C1 3.3 1 6.6 1 10 C0.34 10 -0.32 10 -1 10 C-1 10.66 -1 11.32 -1 12 C-1.99 12 -2.98 12 -4 12 C-4 12.66 -4 13.32 -4 14 C-5.20398438 14.20496094 -6.40796875 14.40992188 -7.6484375 14.62109375 C-9.22398692 14.89306359 -10.79950621 15.16520807 -12.375 15.4375 C-13.1690625 15.57220703 -13.963125 15.70691406 -14.78125 15.84570312 C-19.01394983 16.51417589 -19.01394983 16.51417589 -23 18 C-24.9593604 18.08510205 -26.92162794 18.10717656 -28.8828125 18.09765625 C-30.04941406 18.09443359 -31.21601563 18.09121094 -32.41796875 18.08789062 C-33.64128906 18.07951172 -34.86460937 18.07113281 -36.125 18.0625 C-37.35605469 18.05798828 -38.58710938 18.05347656 -39.85546875 18.04882812 C-42.90369392 18.0370133 -45.95182314 18.02054028 -49 18 C-49 17.67 -49 17.34 -49 17 C-48.30664551 16.93006836 -47.61329102 16.86013672 -46.89892578 16.78808594 C-29.6584776 15.04219123 -29.6584776 15.04219123 -12.625 11.9375 C-11.90199707 11.77540039 -11.17899414 11.61330078 -10.43408203 11.44628906 C-5.45274707 10.33677182 -5.45274707 10.33677182 -1 8 C-0.30367785 6.04634555 -0.30367785 6.04634555 -0.25 3.875 C-0.1675 2.59625 -0.085 1.3175 0 0 Z " fill="#9D6D49" transform="translate(249,174)" data-index="21"></path>
<path d="M0 0 C9.89629236 9.34649834 14.66594004 21.97820116 15.1171875 35.515625 C15.12403711 38.68014414 15.08924201 41.83686649 15 45 C12.47546806 42.47546806 12.75402838 41.49369152 12.625 38 C12.26227144 33.00600506 11.06897505 29.29198918 9.03515625 24.7578125 C7.36777683 20.31566204 6.73773374 15.67884918 6.00390625 11.00390625 C4.75923603 7.27958174 3.38758613 6.75935925 0 5 C-0.3125 2.3125 -0.3125 2.3125 0 0 Z " fill="#726A46" transform="translate(232,120)" data-index="22"></path>
<path d="M0 0 C7.52771157 -0.02314652 15.05541947 -0.04092691 22.58315849 -0.05181217 C26.07840098 -0.05703593 29.57361916 -0.06412441 33.06884766 -0.07543945 C37.08496334 -0.08835974 41.1010534 -0.0932324 45.1171875 -0.09765625 C47.00472244 -0.10539818 47.00472244 -0.10539818 48.9303894 -0.11329651 C50.09144196 -0.11337204 51.25249451 -0.11344757 52.44873047 -0.11352539 C53.47465302 -0.115746 54.50057556 -0.11796661 55.55758667 -0.12025452 C58 0 58 0 60 1 C60 2.32 60 3.64 60 5 C58.33271516 4.88353525 56.666182 4.75630239 55 4.625 C54.071875 4.55539063 53.14375 4.48578125 52.1875 4.4140625 C49 4 49 4 45.41015625 3 C40.68258866 1.79995111 36.10894503 1.65154172 31.25 1.5859375 C30.35128174 1.56657135 29.45256348 1.5472052 28.52661133 1.5272522 C25.68450104 1.46795392 22.84234915 1.42127192 20 1.375 C18.06118124 1.33677433 16.12237862 1.29772 14.18359375 1.2578125 C9.4558619 1.1622939 4.72805068 1.0780814 0 1 C0 0.67 0 0.34 0 0 Z " fill="#A97F40" transform="translate(156,192)" data-index="23"></path>
<path d="M0 0 C6.86149067 1.00904275 13.72242146 4.40815096 18 10 C18.59315394 12.91327821 18.36235048 14.99766745 18 18 C17.67 16.68 17.34 15.36 17 14 C16.34 14 15.68 14 15 14 C14.67 14.66 14.34 15.32 14 16 C13.01 16 12.02 16 11 16 C9 12 7 8 5 4 C4.34 4 3.68 4 3 4 C1.375 2 1.375 2 0 0 Z " fill="#908146" transform="translate(214,108)" data-index="24"></path>
<path d="M0 0 C0.33 0 0.66 0 1 0 C1 3.63 1 7.26 1 11 C2.32 11 3.64 11 5 11 C4.34 12.65 3.68 14.3 3 16 C2.34 16 1.68 16 1 16 C1 19.3 1 22.6 1 26 C3.31 26.66 5.62 27.32 8 28 C5.301935 28.99928333 4.11989571 29.03624754 1.3125 28.1875 C-1 27 -1 27 -2 25 C-2.0716735 22.44842345 -2.09308442 19.92527029 -2.0625 17.375 C-2.05798828 16.66859375 -2.05347656 15.9621875 -2.04882812 15.234375 C-2.03703875 13.48954725 -2.01910324 11.744763 -2 10 C-2.99 10.495 -2.99 10.495 -4 11 C-6.37402501 11.07116382 -8.75000677 11.08409085 -11.125 11.0625 C-12.40632813 11.05347656 -13.68765625 11.04445312 -15.0078125 11.03515625 C-16.48894531 11.01775391 -16.48894531 11.01775391 -18 11 C-18 10.67 -18 10.34 -18 10 C-9.585 9.01 -9.585 9.01 -1 8 C-0.67 5.36 -0.34 2.72 0 0 Z " fill="#97351C" transform="translate(124,160)" data-index="25"></path>
<path d="M0 0 C0 0.66 0 1.32 0 2 C-6.66285186 3.5546838 -12.8930965 4.2809868 -19.7265625 4.1953125 C-21.03710098 4.19106766 -21.03710098 4.19106766 -22.37411499 4.18673706 C-25.12455814 4.17567303 -27.87465774 4.15059581 -30.625 4.125 C-32.50650567 4.11495234 -34.38801651 4.10582964 -36.26953125 4.09765625 C-40.84648357 4.07577912 -45.42318385 4.04134719 -50 4 C-50 3.67 -50 3.34 -50 3 C-44.46891734 2.23053933 -39.06448318 1.82200874 -33.484375 1.71875 C-32.70612366 1.70034058 -31.92787231 1.68193115 -31.1260376 1.66296387 C-27.83187205 1.58504538 -24.53753381 1.51641335 -21.24316406 1.44775391 C-18.82346854 1.39593724 -16.40394067 1.33876731 -13.984375 1.28125 C-12.87180328 1.26088684 -12.87180328 1.26088684 -11.73675537 1.2401123 C-7.74237395 1.14397937 -3.90164873 0 0 0 Z " fill="#CCBB74" transform="translate(234,207)" data-index="26"></path>
<path d="M0 0 C3.25048232 0.4759315 6.50029224 0.95631049 9.75 1.4375 C10.67039063 1.57220703 11.59078125 1.70691406 12.5390625 1.84570312 C13.87324219 2.04389648 13.87324219 2.04389648 15.234375 2.24609375 C16.45979004 2.42676392 16.45979004 2.42676392 17.70996094 2.61108398 C20 3 20 3 21.83935547 3.51147461 C24.23015755 4.05203901 26.40987594 4.16018193 28.86035156 4.20532227 C30.30139252 4.2352401 30.30139252 4.2352401 31.77154541 4.26576233 C33.31548981 4.29083107 33.31548981 4.29083107 34.890625 4.31640625 C35.95037537 4.33718735 37.01012573 4.35796844 38.10198975 4.37937927 C41.48459438 4.44472186 44.86727612 4.50368881 48.25 4.5625 C50.54427878 4.60569975 52.83854979 4.64931451 55.1328125 4.69335938 C60.75512702 4.8003876 66.3775181 4.90218239 72 5 C72 5.33 72 5.66 72 6 C64.78170152 6.10274743 57.56359645 6.17202058 50.34472656 6.21972656 C47.89706375 6.23964716 45.44944727 6.26679361 43.00195312 6.30175781 C14.55864787 6.69745028 14.55864787 6.69745028 1 2 C0.67 1.34 0.34 0.68 0 0 Z " fill="#841716" transform="translate(128,186)" data-index="27"></path>
<path d="M0 0 C0.33 0.66 0.66 1.32 1 2 C2.32 1.34 3.64 0.68 5 0 C5 5.28 5 10.56 5 16 C4.34 16 3.68 16 3 16 C3 14.02 3 12.04 3 10 C2.34 10 1.68 10 1 10 C1.01160156 10.96421875 1.02320313 11.9284375 1.03515625 12.921875 C1.04417969 14.18515625 1.05320313 15.4484375 1.0625 16.75 C1.07410156 18.00296875 1.08570313 19.2559375 1.09765625 20.546875 C1.02021027 23.28536501 0.82780815 25.41880293 0 28 C1.65 28 3.3 28 5 28 C5 28.33 5 28.66 5 29 C2.36 29 -0.28 29 -3 29 C-2.34 28.67 -1.68 28.34 -1 28 C-1.09539062 27.14277344 -1.19078125 26.28554687 -1.2890625 25.40234375 C-1.91075677 18.99021795 -2.05894758 14.17684274 0 8 C0.16776045 5.30624642 0.09482311 2.70245854 0 0 Z " fill="#C5AA4E" transform="translate(147,144)" data-index="28"></path>
<path d="M0 0 C-0.33 0.66 -0.66 1.32 -1 2 C2.465 1.505 2.465 1.505 6 1 C6 1.66 6 2.32 6 3 C4.02 3.33 2.04 3.66 0 4 C0 4.66 0 5.32 0 6 C1.48011371 5.69201674 2.95907325 5.378482 4.4375 5.0625 C5.67306641 4.80146484 5.67306641 4.80146484 6.93359375 4.53515625 C8.97661204 4.19247006 8.97661204 4.19247006 10 3 C11.99958364 2.95919217 14.00045254 2.95745644 16 3 C15.67 3.66 15.34 4.32 15 5 C12.39163059 5.80756296 9.83930011 6.49859053 7.1875 7.125 C6.46240234 7.30675781 5.73730469 7.48851562 4.99023438 7.67578125 C1.53637079 8.51633726 -1.42575854 9 -5 9 C-5 8.34 -5 7.68 -5 7 C-4.01 6.67 -3.02 6.34 -2 6 C-3.98 6 -5.96 6 -8 6 C-7.67 5.34 -7.34 4.68 -7 4 C-5.35 4 -3.7 4 -2 4 C-2 3.34 -2 2.68 -2 2 C-4.64 2 -7.28 2 -10 2 C-3.24137931 -1.62068966 -3.24137931 -1.62068966 0 0 Z " fill="#766829" transform="translate(274,193)" data-index="29" style="opacity: 1;"></path>
<path d="M0 0 C0 0.66 0 1.32 0 2 C0.99 2.33 1.98 2.66 3 3 C3.33 2.01 3.66 1.02 4 0 C4.66 0.33 5.32 0.66 6 1 C6 1.66 6 2.32 6 3 C6.61875 2.835 7.2375 2.67 7.875 2.5 C12.25470729 1.79924683 16.57428989 1.92265749 21 2 C17.94320209 4.03786527 16.32753405 4.47044662 12.78125 5.0703125 C11.76675781 5.24433594 10.75226563 5.41835937 9.70703125 5.59765625 C8.11955078 5.85869141 8.11955078 5.85869141 6.5 6.125 C5.44167969 6.30675781 4.38335937 6.48851562 3.29296875 6.67578125 C-4.5428219 8 -4.5428219 8 -8 8 C-8 7.34 -8 6.68 -8 6 C-6.02 6 -4.04 6 -2 6 C-2.34786708 4.02463255 -2.34786708 4.02463255 -3 2 C-3.66 1.67 -4.32 1.34 -5 1 C-2 0 -2 0 0 0 Z " fill="#7C714A" transform="translate(261,202)" data-index="30" style="opacity: 1;"></path>
<path d="M0 0 C2.12493141 -0.02693575 4.24995912 -0.04636628 6.375 -0.0625 C7.55835937 -0.07410156 8.74171875 -0.08570313 9.9609375 -0.09765625 C13 0 13 0 15 1 C15 1.66 15 2.32 15 3 C15.969375 3.144375 16.93875 3.28875 17.9375 3.4375 C21 4 21 4 22 5 C23.67542976 4.71395102 25.34385343 4.38218767 27 4 C27 5.65 27 7.3 27 9 C22.38 8.34 17.76 7.68 13 7 C13 5.35 13 3.7 13 2 C12.34 2 11.68 2 11 2 C11 2.66 11 3.32 11 4 C7.37 3.34 3.74 2.68 0 2 C0 1.34 0 0.68 0 0 Z " fill="#D0B95B" transform="translate(109,189)" data-index="31" style="opacity: 1;"></path>
<path d="M0 0 C0.66 0.33 1.32 0.66 2 1 C2.59765625 2.92578125 2.59765625 2.92578125 3.0625 5.3125 C3.21847656 6.09238281 3.37445313 6.87226563 3.53515625 7.67578125 C3.68855469 8.44277344 3.84195313 9.20976562 4 10 C4.32529853 11.33531635 4.65593093 12.66939662 5 14 C4.34 14 3.68 14 3 14 C2.67 14.66 2.34 15.32 2 16 C3.32 16 4.64 16 6 16 C6 11.38 6 6.76 6 2 C8.12508244 5.18762365 8.5020163 7.26512223 9 11 C8.34 11 7.68 11 7 11 C7.185625 11.804375 7.37125 12.60875 7.5625 13.4375 C7.706875 14.283125 7.85125 15.12875 8 16 C7 17 7 17 3.5 17.125 C0 17 0 17 -1 16 C-1.21151758 11.55813077 -0.66199403 7.38571045 0 3 C0 2.01 0 1.02 0 0 Z " fill="#C1A252" transform="translate(224,152)" data-index="32" style="opacity: 1;"></path>
<path d="M0 0 C1.2065625 0.0309375 1.2065625 0.0309375 2.4375 0.0625 C1.7775 1.3825 1.1175 2.7025 0.4375 4.0625 C1.695625 4.206875 2.95375 4.35125 4.25 4.5 C6.86417123 4.79998686 8.91189892 5.22063297 11.4375 6.0625 C11.4375 5.4025 11.4375 4.7425 11.4375 4.0625 C12.0975 4.0625 12.7575 4.0625 13.4375 4.0625 C13.4375 4.7225 13.4375 5.3825 13.4375 6.0625 C14.4275 6.3925 15.4175 6.7225 16.4375 7.0625 C15.4475 7.0625 14.4575 7.0625 13.4375 7.0625 C13.4375 7.7225 13.4375 8.3825 13.4375 9.0625 C12.7775 9.0625 12.1175 9.0625 11.4375 9.0625 C11.4375 8.4025 11.4375 7.7425 11.4375 7.0625 C8.45898438 7.11132812 8.45898438 7.11132812 5.48046875 7.16015625 C3.4375 7.0625 3.4375 7.0625 0.4375 6.0625 C-1.78824335 5.83798542 -4.01831519 5.65467122 -6.25 5.5 C-8.01923828 5.37431641 -8.01923828 5.37431641 -9.82421875 5.24609375 C-10.72785156 5.18550781 -11.63148437 5.12492188 -12.5625 5.0625 C-11.2425 4.7325 -9.9225 4.4025 -8.5625 4.0625 C-8.5625 3.4025 -8.5625 2.7425 -8.5625 2.0625 C-7.3559375 1.8459375 -7.3559375 1.8459375 -6.125 1.625 C-3.22295593 0.98796594 -2.96966232 0.07243079 0 0 Z " fill="#D0BD5D" transform="translate(108.5625,186.9375)" data-index="33" style="opacity: 1;"></path>
<path d="M0 0 C0 0.66 0 1.32 0 2 C0.66 2.33 1.32 2.66 2 3 C1.67 3.99 1.34 4.98 1 6 C2.11375 5.6596875 2.11375 5.6596875 3.25 5.3125 C6 5 6 5 8.3125 6.4375 C9.1478125 7.2109375 9.1478125 7.2109375 10 8 C9.34 8 8.68 8 8 8 C8 8.66 8 9.32 8 10 C7.34 10 6.68 10 6 10 C6 9.34 6 8.68 6 8 C3.66924071 8.95865509 3.66924071 8.95865509 2 12 C-2.22797927 9.00518135 -2.22797927 9.00518135 -4 7 C-4.375 3.6875 -4.375 3.6875 -4 1 C-2 0 -2 0 0 0 Z " fill="#B6AB63" transform="translate(71,179)" data-index="34"></path>
<path d="M0 0 C3.00617269 3.00617269 2.59585316 5.82381598 3 10 C4.65 10 6.3 10 8 10 C8 10.33 8 10.66 8 11 C6.02 11 4.04 11 2 11 C2 13.64 2 16.28 2 19 C0.35 19.33 -1.3 19.66 -3 20 C-2.01 19.67 -1.02 19.34 0 19 C0 18.34 0 17.68 0 17 C-1.32 17.33 -2.64 17.66 -4 18 C-4 17.34 -4 16.68 -4 16 C-2.35 16 -0.7 16 1 16 C0.34 12.37 -0.32 8.74 -1 5 C-3.64 5 -6.28 5 -9 5 C-6.23776722 2.23776722 -3.79293383 2.42143709 0 2 C0 1.34 0 0.68 0 0 Z " fill="#66201B" transform="translate(247,163)" data-index="35"></path>
<path d="M0 0 C0.66 0 1.32 0 2 0 C2.77112541 4.72314313 3.09764874 9.21521178 3 14 C2.34 14 1.68 14 1 14 C1 14.66 1 15.32 1 16 C1.99 16.33 2.98 16.66 4 17 C1.47524538 18.26237731 -0.31200466 18.09856404 -3.125 18.0625 C-4.03507812 18.05347656 -4.94515625 18.04445312 -5.8828125 18.03515625 C-6.93082031 18.01775391 -6.93082031 18.01775391 -8 18 C-8 17.01 -8 16.02 -8 15 C-6.35 15 -4.7 15 -3 15 C-3 14.34 -3 13.68 -3 13 C-2.01 13 -1.02 13 0 13 C0 8.71 0 4.42 0 0 Z " fill="#D2B260" transform="translate(120,172)" data-index="36"></path>
<path d="M0 0 C-1.65 0.66 -3.3 1.32 -5 2 C-4.34 2.66 -3.68 3.32 -3 4 C-3.95712891 4.07347656 -3.95712891 4.07347656 -4.93359375 4.1484375 C-5.75988281 4.22320312 -6.58617187 4.29796875 -7.4375 4.375 C-8.26121094 4.44460937 -9.08492187 4.51421875 -9.93359375 4.5859375 C-10.61550781 4.72257813 -11.29742187 4.85921875 -12 5 C-12.33 5.66 -12.66 6.32 -13 7 C-13.66 6.67 -14.32 6.34 -15 6 C-15.33 6.99 -15.66 7.98 -16 9 C-19.63 9 -23.26 9 -27 9 C-27 8.67 -27 8.34 -27 8 C-24.75194998 7.32678716 -22.50147776 6.66165877 -20.25 6 C-18.99703125 5.62875 -17.7440625 5.2575 -16.453125 4.875 C-13 4 -13 4 -9 4 C-9 3.34 -9 2.68 -9 2 C-9.99 1.67 -10.98 1.34 -12 1 C-10.56496445 0.63597631 -9.12683494 0.28413409 -7.6875 -0.0625 C-6.88699219 -0.25972656 -6.08648437 -0.45695313 -5.26171875 -0.66015625 C-3 -1 -3 -1 0 0 Z " fill="#89793C" transform="translate(259,201)" data-index="37" style="opacity: 1;"></path>
<path d="M0 0 C1.32 0.33 2.64 0.66 4 1 C4 5.29 4 9.58 4 14 C2.68 13.67 1.36 13.34 0 13 C0 8.71 0 4.42 0 0 Z " fill="#867427" transform="translate(233,151)" data-index="38"></path>
<path d="M0 0 C0 0.99 0 1.98 0 3 C-1.72526042 3.94401042 -3.45052083 4.88802083 -5.17578125 5.83203125 C-9.68412964 8.71853268 -10.98950027 12.06322797 -12.83984375 16.94140625 C-14.22352901 19.39663229 -15.41206973 20.00048622 -18 21 C-16.87607452 17.10948872 -15.96542676 14.72819262 -13 12 C-12.608125 11.2575 -12.21625 10.515 -11.8125 9.75 C-9.38444158 6.06604929 -4.73499429 0 0 0 Z " fill="#ACA170" transform="translate(148,115)" data-index="39"></path>
<path d="M0 0 C1.32 0.66 2.64 1.32 4 2 C4 2.66 4 3.32 4 4 C2.68 4 1.36 4 0 4 C0 4.66 0 5.32 0 6 C-4.95 5.67 -9.9 5.34 -15 5 C-11.85224323 2.90149549 -10.0492934 2.51433498 -6.375 1.9375 C-2.87862912 1.63491174 -2.87862912 1.63491174 0 0 Z " fill="#C7B46A" transform="translate(140,202)" data-index="40" style="opacity: 1;"></path>
<path d="M0 0 C0 0.66 0 1.32 0 2 C-1.175625 2.185625 -1.175625 2.185625 -2.375 2.375 C-5.14057822 2.79117993 -5.14057822 2.79117993 -7 5 C-7.99 5 -8.98 5 -10 5 C-10 6.32 -10 7.64 -10 9 C-12.97 9.66 -15.94 10.32 -19 11 C-18.34 10.01 -17.68 9.02 -17 8 C-16.01 8 -15.02 8 -14 8 C-14 7.01 -14 6.02 -14 5 C-12.23628182 3.96692229 -10.46374967 2.94887951 -8.6875 1.9375 C-7.70136719 1.36902344 -6.71523437 0.80054687 -5.69921875 0.21484375 C-3 -1 -3 -1 0 0 Z " fill="#D0BF7D" transform="translate(162,110)" data-index="41"></path>
<path d="M0 0 C1.06863281 0.01804688 2.13726562 0.03609375 3.23828125 0.0546875 C4.04652344 0.07789063 4.85476562 0.10109375 5.6875 0.125 C5.6875 1.115 5.6875 2.105 5.6875 3.125 C2.5029822 3.84408466 -0.70899466 4.39572759 -3.9375 4.875 C-4.69289062 4.99359375 -5.44828125 5.1121875 -6.2265625 5.234375 C-8.3125 5.125 -8.3125 5.125 -10.0859375 3.640625 C-10.49070312 3.14046875 -10.89546875 2.6403125 -11.3125 2.125 C-7.38392246 0.27368517 -4.32474888 -0.09504943 0 0 Z " fill="#CFBC55" transform="translate(138.3125,199.875)" data-index="42" style="opacity: 1;"></path>
<path d="M0 0 C0.66 0 1.32 0 2 0 C2 0.66 2 1.32 2 2 C3.65 1.67 5.3 1.34 7 1 C6.80078125 2.890625 6.80078125 2.890625 6 5 C3.85546875 6.046875 3.85546875 6.046875 1.1875 6.75 C0.31480469 6.99234375 -0.55789062 7.2346875 -1.45703125 7.484375 C-4 8 -4 8 -8 8 C-8 7.34 -8 6.68 -8 6 C-5.34771188 4.92474806 -2.71631546 3.90543849 0 3 C0 2.01 0 1.02 0 0 Z " fill="#771718" transform="translate(240,179)" data-index="43"></path>
<path d="M0 0 C1.67542976 0.28604898 3.34385343 0.61781233 5 1 C4.74385063 5.35453922 4.42722153 7.49609768 1.5625 10.875 C-1 13 -1 13 -3 14 C-3.66 13.34 -4.32 12.68 -5 12 C-3.35 11.34 -1.7 10.68 0 10 C0.33 7.36 0.66 4.72 1 2 C0.34 1.67 -0.32 1.34 -1 1 C-0.67 0.67 -0.34 0.34 0 0 Z " fill="#777051" transform="translate(295,186)" data-index="44" style="opacity: 1;"></path>
<path d="M0 0 C0.33 0 0.66 0 1 0 C1.33 2.64 1.66 5.28 2 8 C2.66 8 3.32 8 4 8 C4 10.31 4 12.62 4 15 C3.34 14.34 2.68 13.68 2 13 C2 12.01 2 11.02 2 10 C1.34 10 0.68 10 0 10 C0.33 11.65 0.66 13.3 1 15 C0.34 15 -0.32 15 -1 15 C-1.69890847 10.63182208 -2.30880577 6.426216 -2 2 C-1.34 1.34 -0.68 0.68 0 0 Z " fill="#C2AF4B" transform="translate(226,136)" data-index="45"></path>
<path d="M0 0 C0 0.66 0 1.32 0 2 C-1.39025391 2.18175781 -1.39025391 2.18175781 -2.80859375 2.3671875 C-4.00613281 2.53476563 -5.20367187 2.70234375 -6.4375 2.875 C-7.63246094 3.03742188 -8.82742187 3.19984375 -10.05859375 3.3671875 C-11.51458984 3.68042969 -11.51458984 3.68042969 -13 4 C-13.33 4.66 -13.66 5.32 -14 6 C-15.32 6 -16.64 6 -18 6 C-18 5.34 -18 4.68 -18 4 C-19.32 3.67 -20.64 3.34 -22 3 C-22 2.67 -22 2.34 -22 2 C-18.7084948 1.66505928 -15.41677068 1.33232064 -12.125 1 C-11.18785156 0.90460938 -10.25070313 0.80921875 -9.28515625 0.7109375 C-8.38925781 0.62070313 -7.49335937 0.53046875 -6.5703125 0.4375 C-5.74289551 0.35371094 -4.91547852 0.26992187 -4.06298828 0.18359375 C-2 0 -2 0 0 0 Z " fill="#D4C07A" transform="translate(122,170)" data-index="46"></path>
<path d="M0 0 C3.25048232 0.4759315 6.50029224 0.95631049 9.75 1.4375 C10.67039063 1.57220703 11.59078125 1.70691406 12.5390625 1.84570312 C13.87324219 2.04389648 13.87324219 2.04389648 15.234375 2.24609375 C16.45979004 2.42676392 16.45979004 2.42676392 17.70996094 2.61108398 C19.84392138 2.97349326 21.90916693 3.44370405 24 4 C24 4.66 24 5.32 24 6 C19.23408355 5.45008656 14.49066885 4.80032469 9.75 4.0625 C8.75484375 3.90910156 7.7596875 3.75570312 6.734375 3.59765625 C4.18137988 3.03964446 2.25943488 2.28572604 0 1 C0 0.67 0 0.34 0 0 Z " fill="#902718" transform="translate(128,186)" data-index="47"></path>
<path d="M0 0 C0.33 0 0.66 0 1 0 C1 3.96 1 7.92 1 12 C0.01 12 -0.98 12 -2 12 C-2 11.34 -2 10.68 -2 10 C-2.99 10.495 -2.99 10.495 -4 11 C-6.37402501 11.07116382 -8.75000677 11.08409085 -11.125 11.0625 C-12.40632813 11.05347656 -13.68765625 11.04445312 -15.0078125 11.03515625 C-16.48894531 11.01775391 -16.48894531 11.01775391 -18 11 C-18 10.67 -18 10.34 -18 10 C-9.585 9.01 -9.585 9.01 -1 8 C-0.67 5.36 -0.34 2.72 0 0 Z " fill="#705A3D" transform="translate(124,160)" data-index="48"></path>
<path d="M0 0 C3.3 0.66 6.6 1.32 10 2 C8.68 2.33 7.36 2.66 6 3 C6 3.66 6 4.32 6 5 C0.58461538 6.23076923 0.58461538 6.23076923 -2.375 5.0625 C-2.91125 4.711875 -3.4475 4.36125 -4 4 C-2.68 4 -1.36 4 0 4 C0 2.68 0 1.36 0 0 Z " fill="#D2BE68" transform="translate(120,198)" data-index="49"></path>
<path d="M0 0 C3.63 0 7.26 0 11 0 C11 1.32 11 2.64 11 4 C6.1666528 4.08333357 1.76307437 3.95261487 -3 3 C-2.01 2.67 -1.02 2.34 0 2 C0 1.34 0 0.68 0 0 Z " fill="#8F7F33" transform="translate(221,195)" data-index="50"></path>
<path d="M0 0 C2.33294775 -0.04241723 4.66702567 -0.04092937 7 0 C7.33 0.33 7.66 0.66 8 1 C9.51928038 1.07179964 11.04167482 1.08392007 12.5625 1.0625 C13.38878906 1.05347656 14.21507812 1.04445312 15.06640625 1.03515625 C16.02353516 1.01775391 16.02353516 1.01775391 17 1 C16.67 1.99 16.34 2.98 16 4 C14.741875 4.020625 13.48375 4.04125 12.1875 4.0625 C11.47980469 4.07410156 10.77210938 4.08570313 10.04296875 4.09765625 C8 4 8 4 5 3 C5 2.34 5 1.68 5 1 C3.35 1 1.7 1 0 1 C0 0.67 0 0.34 0 0 Z " fill="#A92233" transform="translate(208,171)" data-index="51"></path>
<path d="M0 0 C7.22898611 1.06308619 13.0364861 4.7281021 18 10 C18 10.66 18 11.32 18 12 C16.68 12 15.36 12 14 12 C14 11.01 14 10.02 14 9 C13.34 9 12.68 9 12 9 C12 8.34 12 7.68 12 7 C11.34 7 10.68 7 10 7 C9.67 6.34 9.34 5.68 9 5 C6.88984046 3.87293294 6.88984046 3.87293294 4.4375 2.875 C3.61121094 2.52179688 2.78492188 2.16859375 1.93359375 1.8046875 C1.29550781 1.53914063 0.65742188 1.27359375 0 1 C0 0.67 0 0.34 0 0 Z " fill="#655F42" transform="translate(214,108)" data-index="52"></path>
<path d="M0 0 C2 3 2 3 2 5 C0.23050388 5.50471197 -1.54065223 6.00360685 -3.3125 6.5 C-4.79169922 6.91765625 -4.79169922 6.91765625 -6.30078125 7.34375 C-9 8 -9 8 -12 8 C-12.33 6.35 -12.66 4.7 -13 3 C-12.01 3.33 -11.02 3.66 -10 4 C-8.27204648 4.06802967 -6.54164635 4.08495645 -4.8125 4.0625 C-3.91144531 4.05347656 -3.01039063 4.04445312 -2.08203125 4.03515625 C-1.05142578 4.01775391 -1.05142578 4.01775391 0 4 C0 2.68 0 1.36 0 0 Z " fill="#9E794E" transform="translate(244,160)" data-index="53"></path>
<path d="M0 0 C1.99965715 0.03703069 4.00056665 0.04760556 6 0 C2.50377772 2.33081485 0.5845669 2.37478591 -3.5625 2.625 C-5.29693359 2.73714844 -5.29693359 2.73714844 -7.06640625 2.8515625 C-8.70957953 2.93470576 -10.35472458 3 -12 3 C-12 2.34 -12 1.68 -12 1 C-7.46005295 -0.83759761 -4.75529295 -0.99068603 0 0 Z " fill="#90854D" transform="translate(279,202)" data-index="54"></path>
<path d="M0 0 C2.64 0.33 5.28 0.66 8 1 C8 1.99 8 2.98 8 4 C6.68 3.67 5.36 3.34 4 3 C4 3.66 4 4.32 4 5 C2.5199159 4.88637738 1.04089926 4.75877092 -0.4375 4.625 C-1.26121094 4.55539063 -2.08492188 4.48578125 -2.93359375 4.4140625 C-3.61550781 4.27742187 -4.29742187 4.14078125 -5 4 C-5.33 3.34 -5.66 2.68 -6 2 C-0.25 2.875 -0.25 2.875 2 4 C2 3.34 2 2.68 2 2 C1.34 2 0.68 2 0 2 C0 1.34 0 0.68 0 0 Z " fill="#B7A343" transform="translate(96,186)" data-index="55"></path>
<path d="M0 0 C0.33 0 0.66 0 1 0 C1.33 2.64 1.66 5.28 2 8 C2.84304687 8.12117187 3.68609375 8.24234375 4.5546875 8.3671875 C5.65039062 8.53476563 6.74609375 8.70234375 7.875 8.875 C8.96554688 9.03742188 10.05609375 9.19984375 11.1796875 9.3671875 C14 10 14 10 16 12 C13.89505699 11.91291962 11.79097858 11.80474307 9.6875 11.6875 C7.92986328 11.60048828 7.92986328 11.60048828 6.13671875 11.51171875 C3 11 3 11 1.09375 9.71875 C-0.88221258 6.61366595 -0.17657321 3.59032189 0 0 Z " fill="#A62035" transform="translate(124,176)" data-index="56"></path>
<path d="M0 0 C1.43791516 0.14168137 2.8753237 0.28851043 4.3125 0.4375 C5.11300781 0.51871094 5.91351563 0.59992188 6.73828125 0.68359375 C9 1 9 1 12 2 C12 1.34 12 0.68 12 0 C12.66 0 13.32 0 14 0 C14 0.66 14 1.32 14 2 C14.99 2.33 15.98 2.66 17 3 C16.01 3 15.02 3 14 3 C14 3.66 14 4.32 14 5 C13.34 5 12.68 5 12 5 C12 4.34 12 3.68 12 3 C10.7625 3.04125 9.525 3.0825 8.25 3.125 C4.98362038 3.13658291 2.7853053 2.8568702 0 1 C0 0.67 0 0.34 0 0 Z " fill="#DAC36B" transform="translate(108,191)" data-index="57" style="opacity: 1;"></path>
<path d="M0 0 C1.65 0 3.3 0 5 0 C4.67 0.66 4.34 1.32 4 2 C6.475 2.99 6.475 2.99 9 4 C9 4.66 9 5.32 9 6 C10.32 6.33 11.64 6.66 13 7 C9.04 6.67 5.08 6.34 1 6 C0.67 4.02 0.34 2.04 0 0 Z " fill="#D8C270" transform="translate(71,179)" data-index="58"></path>
<path d="M0 0 C0.33 0 0.66 0 1 0 C1 1.98 1 3.96 1 6 C0.34 6 -0.32 6 -1 6 C-1 8.31 -1 10.62 -1 13 C-3.31 13.33 -5.62 13.66 -8 14 C-7.67 12.35 -7.34 10.7 -7 9 C-6.01 9 -5.02 9 -4 9 C-3.67 9.66 -3.34 10.32 -3 11 C-2.86722656 10.28972656 -2.73445312 9.57945312 -2.59765625 8.84765625 C-2.42105469 7.92855469 -2.24445313 7.00945312 -2.0625 6.0625 C-1.88847656 5.14597656 -1.71445313 4.22945312 -1.53515625 3.28515625 C-1 1 -1 1 0 0 Z " fill="#BBA645" transform="translate(139,146)" data-index="59"></path>
<path d="M0 0 C2.64 0.33 5.28 0.66 8 1 C8 2.32 8 3.64 8 5 C5.36 5 2.72 5 0 5 C0 3.35 0 1.7 0 0 Z " fill="#D1BC54" transform="translate(208,198)" data-index="60"></path>
<path d="M0 0 C3.33333333 0.66666667 6.66666667 1.33333333 10 2 C11.40185547 2.28037109 11.40185547 2.28037109 12.83203125 2.56640625 C13.54746094 2.70949219 14.26289062 2.85257813 15 3 C15 3.66 15 4.32 15 5 C9.43109483 4.52013969 4.32932432 3.70084819 -1 2 C-0.67 1.34 -0.34 0.68 0 0 Z " fill="#D4C36E" transform="translate(95,191)" data-index="61"></path>
<path d="M0 0 C7.50769231 -0.36923077 7.50769231 -0.36923077 10 1.5 C10.495 2.2425 10.495 2.2425 11 3 C8.79112053 4.34110539 7.54530581 5.06609767 4.9375 4.75 C3 4 3 4 0 2 C0 1.34 0 0.68 0 0 Z " fill="#D7C065" transform="translate(124,190)" data-index="62"></path>
<path d="M0 0 C1.32 0.66 2.64 1.32 4 2 C4 1.34 4 0.68 4 0 C5.32 0.33 6.64 0.66 8 1 C8 2.98 8 4.96 8 7 C7.67 6.34 7.34 5.68 7 5 C5.10466658 4.53476937 5.10466658 4.53476937 2.9375 4.375 C1.638125 4.25125 0.33875 4.1275 -1 4 C-0.67 2.68 -0.34 1.36 0 0 Z " fill="#8C7B31" transform="translate(288,189)" data-index="63" style="opacity: 1;"></path>
<path d="M0 0 C2.29141286 -0.05384521 4.58318188 -0.09272087 6.875 -0.125 C8.78925781 -0.15980469 8.78925781 -0.15980469 10.7421875 -0.1953125 C14 0 14 0 16 2 C8.08 2.495 8.08 2.495 0 3 C0 2.01 0 1.02 0 0 Z " fill="#AB140E" transform="translate(208,184)" data-index="64"></path>
<path d="M0 0 C5.28 0.33 10.56 0.66 16 1 C16 1.66 16 2.32 16 3 C10.72 3 5.44 3 0 3 C0 2.01 0 1.02 0 0 Z " fill="#D7BD4D" transform="translate(168,109)" data-index="65"></path>
<path d="M0 0 C-0.66 1.65 -1.32 3.3 -2 5 C-2.57621094 4.61972656 -3.15242187 4.23945312 -3.74609375 3.84765625 C-4.48988281 3.56792969 -5.23367187 3.28820312 -6 3 C-8.1178327 3.88667681 -8.1178327 3.88667681 -10.0625 5.4375 C-12.09765625 6.93359375 -12.09765625 6.93359375 -14 8 C-14.99 7.67 -15.98 7.34 -17 7 C-15.41779413 6.03980636 -13.83418669 5.08192202 -12.25 4.125 C-10.92742187 3.32449219 -10.92742187 3.32449219 -9.578125 2.5078125 C-8.72734375 2.01023437 -7.8765625 1.51265625 -7 1 C-6.29359375 0.58492188 -5.5871875 0.16984375 -4.859375 -0.2578125 C-3 -1 -3 -1 0 0 Z " fill="#897F54" transform="translate(165,107)" data-index="66"></path>
<path d="M0 0 C1.79244141 0.01740234 1.79244141 0.01740234 3.62109375 0.03515625 C5.41740234 0.04869141 5.41740234 0.04869141 7.25 0.0625 C8.17683594 0.07410156 9.10367188 0.08570313 10.05859375 0.09765625 C10.05859375 0.42765625 10.05859375 0.75765625 10.05859375 1.09765625 C8.07859375 1.42765625 6.09859375 1.75765625 4.05859375 2.09765625 C4.05859375 3.08765625 4.05859375 4.07765625 4.05859375 5.09765625 C2.07859375 5.42765625 0.09859375 5.75765625 -1.94140625 6.09765625 C-1.28140625 4.77765625 -0.62140625 3.45765625 0.05859375 2.09765625 C-1.26140625 1.76765625 -2.58140625 1.43765625 -3.94140625 1.09765625 C-2.94140625 0.09765625 -2.94140625 0.09765625 0 0 Z " fill="#8D8147" transform="translate(245.94140625,199.90234375)" data-index="67"></path>
<path d="M0 0 C4.29 0 8.58 0 13 0 C13.33 0.66 13.66 1.32 14 2 C13.01 2 12.02 2 11 2 C11 2.66 11 3.32 11 4 C7.37 3.34 3.74 2.68 0 2 C0 1.34 0 0.68 0 0 Z " fill="#B19E3C" transform="translate(109,189)" data-index="68"></path>
<path d="M0 0 C3.96 0 7.92 0 12 0 C12 0.99 12 1.98 12 3 C3.42857143 3.14285714 3.42857143 3.14285714 0 2 C0 1.34 0 0.68 0 0 Z " fill="#A51F17" transform="translate(148,188)" data-index="69"></path>
<path d="M0 0 C2.64 0 5.28 0 8 0 C6.71034824 1.37562854 5.37310707 2.70766393 4 4 C3.34 4 2.68 4 2 4 C1.67 5.65 1.34 7.3 1 9 C0.67 9 0.34 9 0 9 C0 6.03 0 3.06 0 0 Z " fill="#907A4B" transform="translate(250,174)" data-index="70"></path>
<path d="M0 0 C0.99 0 1.98 0 3 0 C3 2.64 3 5.28 3 8 C1.68 8 0.36 8 -1 8 C-1.04241723 5.66705225 -1.04092937 3.33297433 -1 1 C-0.67 0.67 -0.34 0.34 0 0 Z " fill="#C9AF59" transform="translate(130,163)" data-index="71"></path>
<path d="M0 0 C4.37934119 0.51958285 8.68803391 1.05675742 13 2 C13 2.66 13 3.32 13 4 C9.7220142 5.09266193 9.15868803 4.8361233 6 4 C4.33376361 3.96213099 2.66602403 3.95372155 1 4 C1.33 3.34 1.66 2.68 2 2 C1.34 1.34 0.68 0.68 0 0 Z " fill="#D6C46F" transform="translate(93,195)" data-index="72"></path>
<path d="M0 0 C0.33 0 0.66 0 1 0 C1.08131463 1.43655854 1.13933559 2.8744483 1.1875 4.3125 C1.22230469 5.11300781 1.25710937 5.91351563 1.29296875 6.73828125 C0.93801608 9.47851584 0.10633718 10.29171079 -2 12 C-3.35439668 9.29120665 -3.06501451 6.99066732 -3 4 C-2.34 3.67 -1.68 3.34 -1 3 C-0.67 2.01 -0.34 1.02 0 0 Z " fill="#DAC266" transform="translate(141,148)" data-index="73"></path>
<path d="M0 0 C3.63559661 3.43361902 6.36113346 6.7973607 9 11 C8.67 11.66 8.34 12.32 8 13 C7.34 13 6.68 13 6 13 C5.7525 12.05125 5.505 11.1025 5.25 10.125 C4.3142923 6.91306809 4.3142923 6.91306809 1.875 5.625 C1.25625 5.41875 0.6375 5.2125 0 5 C0 3.35 0 1.7 0 0 Z " fill="#696349" transform="translate(232,120)" data-index="74"></path>
<path d="M0 0 C2.875 0.25 2.875 0.25 6 1 C7.375 3.0625 7.375 3.0625 8 5 C7.34 5 6.68 5 6 5 C6 4.34 6 3.68 6 3 C2.37 3.33 -1.26 3.66 -5 4 C-4.34 3.67 -3.68 3.34 -3 3 C-2.67 2.34 -2.34 1.68 -2 1 C-1.34 1.33 -0.68 1.66 0 2 C0 1.34 0 0.68 0 0 Z " fill="#CFC075" transform="translate(210,108)" data-index="75"></path>
<path d="M0 0 C0 1.32 0 2.64 0 4 C-1.98 4.33 -3.96 4.66 -6 5 C-6 4.34 -6 3.68 -6 3 C-6.66 3 -7.32 3 -8 3 C-7.67 2.01 -7.34 1.02 -7 0 C-3.86650268 -1.04449911 -3.01031744 -0.93423645 0 0 Z " fill="#C7B66D" transform="translate(240,204)" data-index="76"></path>
<path d="M0 0 C2.64 0.33 5.28 0.66 8 1 C8 1.99 8 2.98 8 4 C3.71 3.67 -0.58 3.34 -5 3 C-5 2.67 -5 2.34 -5 2 C-3.35 2 -1.7 2 0 2 C0 1.34 0 0.68 0 0 Z " fill="#D0B26E" transform="translate(192,193)" data-index="77"></path>
<path d="M0 0 C8.57142857 -0.28571429 8.57142857 -0.28571429 12 2 C6.27959989 2.8320582 0.77759884 3.12036664 -5 3 C-5 2.67 -5 2.34 -5 2 C-3.35 2 -1.7 2 0 2 C0 1.34 0 0.68 0 0 Z " fill="#DBBD73" transform="translate(200,168)" data-index="78"></path>
<path d="M0 0 C-1.65 0.66 -3.3 1.32 -5 2 C-4.34 2.66 -3.68 3.32 -3 4 C-5.64 4.33 -8.28 4.66 -11 5 C-10.34 4.67 -9.68 4.34 -9 4 C-9 3.34 -9 2.68 -9 2 C-9.99 1.67 -10.98 1.34 -12 1 C-10.56496445 0.63597631 -9.12683494 0.28413409 -7.6875 -0.0625 C-6.88699219 -0.25972656 -6.08648437 -0.45695313 -5.26171875 -0.66015625 C-3 -1 -3 -1 0 0 Z " fill="#6D6229" transform="translate(259,201)" data-index="79"></path>
<path d="M0 0 C4.29 0 8.58 0 13 0 C12.67 0.66 12.34 1.32 12 2 C10.00390625 2.37890625 10.00390625 2.37890625 7.5625 2.5625 C4.15371795 2.8061175 4.15371795 2.8061175 1 4 C0.67 2.68 0.34 1.36 0 0 Z " fill="#971E14" transform="translate(131,172)" data-index="80"></path>
<path d="M0 0 C0 0.99 0 1.98 0 3 C-1.60379341 3.05416188 -3.20811406 3.09286638 -4.8125 3.125 C-5.70582031 3.14820313 -6.59914062 3.17140625 -7.51953125 3.1953125 C-10 3 -10 3 -13 1 C-8.60563789 0.14256349 -4.47427924 -0.08948558 0 0 Z " fill="#E2B173" transform="translate(146,169)" data-index="81"></path>
<path d="M0 0 C0.99 0.495 0.99 0.495 2 1 C2.59765625 2.92578125 2.59765625 2.92578125 3.0625 5.3125 C3.21847656 6.09238281 3.37445313 6.87226563 3.53515625 7.67578125 C3.68855469 8.44277344 3.84195313 9.20976562 4 10 C4.32529853 11.33531635 4.65593093 12.66939662 5 14 C3.68 13.67 2.36 13.34 1 13 C-0.10228696 8.59085217 -0.07654536 4.51617599 0 0 Z " fill="#C4AF4F" transform="translate(224,152)" data-index="82"></path>
<path d="M0 0 C0.33 0 0.66 0 1 0 C1.33 2.97 1.66 5.94 2 9 C2.66 9 3.32 9 4 9 C4 9.66 4 10.32 4 11 C2.35 11.33 0.7 11.66 -1 12 C-1.02687279 10.18757948 -1.04633715 8.37504767 -1.0625 6.5625 C-1.07410156 5.55316406 -1.08570312 4.54382813 -1.09765625 3.50390625 C-1 1 -1 1 0 0 Z " fill="#C3B86F" transform="translate(127,148)" data-index="83"></path>
<path d="M0 0 C0.99 0.33 1.98 0.66 3 1 C3 3.31 3 5.62 3 8 C3.99 8.33 4.98 8.66 6 9 C5.34 9.66 4.68 10.32 4 11 C2.68 10.67 1.36 10.34 0 10 C0 6.7 0 3.4 0 0 Z M7 6 C7.33 6.66 7.66 7.32 8 8 C7.34 7.67 6.68 7.34 6 7 C6.33 6.67 6.66 6.34 7 6 Z " fill="#8D1224" transform="translate(232,174)" data-index="84"></path>
<path d="M0 0 C0.33 0 0.66 0 1 0 C1 3.3 1 6.6 1 10 C0.34 10 -0.32 10 -1 10 C-1 10.66 -1 11.32 -1 12 C-3.64 12 -6.28 12 -9 12 C-5 10 -5 10 -2.8125 9.375 C-0.83047272 8.17019481 -0.83047272 8.17019481 -0.52734375 6.09375 C-0.27445656 4.07065245 -0.13126528 2.03461177 0 0 Z " fill="#995D43" transform="translate(249,174)" data-index="85"></path>
<path d="M0 0 C0 0.99 0 1.98 0 3 C-1.051875 3.5775 -2.10375 4.155 -3.1875 4.75 C-6.3786482 6.5661006 -9.19489535 8.61991121 -12 11 C-10.5611898 7.612801 -8.77880501 5.6405896 -6 3.25 C-5.29875 2.63640625 -4.5975 2.0228125 -3.875 1.390625 C-2 0 -2 0 0 0 Z " fill="#7C7452" transform="translate(148,115)" data-index="86"></path>
<path d="M0 0 C2.31 0 4.62 0 7 0 C7 0.33 7 0.66 7 1 C5.35 1 3.7 1 2 1 C2.33 2.32 2.66 3.64 3 5 C1.35 5.66 -0.3 6.32 -2 7 C-1.125 2.25 -1.125 2.25 0 0 Z " fill="#A52B2D" transform="translate(129,171)" data-index="87"></path>
<path d="M0 0 C0 0.99 0 1.98 0 3 C-5.94 3.495 -5.94 3.495 -12 4 C-11.67 3.34 -11.34 2.68 -11 2 C-9.00390625 1.3671875 -9.00390625 1.3671875 -6.5625 0.875 C-5.75941406 0.70742187 -4.95632812 0.53984375 -4.12890625 0.3671875 C-2 0 -2 0 0 0 Z " fill="#C8BD7E" transform="translate(176,104)" data-index="88"></path>
<path d="M0 0 C2.97 0.495 2.97 0.495 6 1 C4.25 4.875 4.25 4.875 2 6 C0.00039988 6.039992 -2.00047242 6.04346799 -4 6 C-3.360625 5.87625 -2.72125 5.7525 -2.0625 5.625 C-1.381875 5.41875 -0.70125 5.2125 0 5 C0.33 4.34 0.66 3.68 1 3 C1.66 3.33 2.32 3.66 3 4 C3 3.34 3 2.68 3 2 C2.01 2 1.02 2 0 2 C0 1.34 0 0.68 0 0 Z " fill="#CDC078" transform="translate(240,201)" data-index="89" style="opacity: 1;"></path>
<path d="M0 0 C2.58151762 0.98705086 4.79990606 2.32702332 7.125 3.8125 C4.30685434 5.22157283 2.95222796 4.32122691 0 3.375 C-0.91007812 3.08753906 -1.82015625 2.80007812 -2.7578125 2.50390625 C-3.45648438 2.27574219 -4.15515625 2.04757813 -4.875 1.8125 C-1.875 -0.1875 -1.875 -0.1875 0 0 Z " fill="#ACA668" transform="translate(100.875,198.1875)" data-index="90"></path>
<path d="M0 0 C3.3 0.33 6.6 0.66 10 1 C9.01 1.495 9.01 1.495 8 2 C8.33 2.99 8.66 3.98 9 5 C4.89198233 3.81323934 3.10551666 3.10551666 0 0 Z " fill="#A59C69" transform="translate(75,191)" data-index="91"></path>
<path d="M0 0 C4.11574371 0.4748935 7.36383344 1.0210244 11 3 C9.54364629 3.22174933 8.08477044 3.42698698 6.625 3.625 C5.81289063 3.74101562 5.00078125 3.85703125 4.1640625 3.9765625 C3.44992187 3.98429688 2.73578125 3.99203125 2 4 C1.34 3.34 0.68 2.68 0 2 C0 1.34 0 0.68 0 0 Z " fill="#8D8050" transform="translate(275,180)" data-index="92"></path>
<path d="M0 0 C0.66 0 1.32 0 2 0 C2.92470553 4.71599818 3.22923777 7.67265609 1 12 C0.67 12 0.34 12 0 12 C0 8.04 0 4.08 0 0 Z " fill="#ECAB6F" transform="translate(120,172)" data-index="93"></path>
<path d="M0 0 C2.31 0 4.62 0 7 0 C7.33 1.32 7.66 2.64 8 4 C5.36 4 2.72 4 0 4 C0 2.68 0 1.36 0 0 Z " fill="#A71724" transform="translate(224,171)" data-index="94"></path>
<path d="M0 0 C-0.33 0.99 -0.66 1.98 -1 3 C-5.16138263 3.08159574 -8.9472484 2.98248524 -13 2 C-13 1.67 -13 1.34 -13 1 C-8.59085217 -0.10228696 -4.51617599 -0.07654536 0 0 Z " fill="#D4BC56" transform="translate(120,172)" data-index="95"></path>
<path d="M0 0 C1.99609375 0.26953125 1.99609375 0.26953125 4.4375 0.8125 C5.64212891 1.06966797 5.64212891 1.06966797 6.87109375 1.33203125 C9 2 9 2 11 4 C9.56163249 3.88541307 8.12429034 3.75790884 6.6875 3.625 C5.88699219 3.55539063 5.08648437 3.48578125 4.26171875 3.4140625 C2 3 2 3 -1 1 C-0.67 0.67 -0.34 0.34 0 0 Z " fill="#BAAE79" transform="translate(113,202)" data-index="96" style="opacity: 1;"></path>
<path d="M0 0 C7.75 0.75 7.75 0.75 10 3 C7.03 3 4.06 3 1 3 C0.67 2.01 0.34 1.02 0 0 Z " fill="#716B48" transform="translate(268,177)" data-index="97"></path>
<path d="M0 0 C0.99 0.66 1.98 1.32 3 2 C3.1875 4.625 3.1875 4.625 3 7 C2.67 6.34 2.34 5.68 2 5 C1.01 5.33 0.02 5.66 -1 6 C-1.625 4.125 -1.625 4.125 -2 2 C-1.34 1.34 -0.68 0.68 0 0 Z " fill="#897F50" transform="translate(235,126)" data-index="98"></path>
<path d="M0 0 C0 0.99 0 1.98 0 3 C-2.64 3 -5.28 3 -8 3 C-8 2.34 -8 1.68 -8 1 C-5.10765685 0.17361624 -3.11257569 0 0 0 Z " fill="#A42237" transform="translate(216,186)" data-index="99"></path>
<path d="M0 0 C-0.66 1.65 -1.32 3.3 -2 5 C-2.99 5 -3.98 5 -5 5 C-5 4.34 -5 3.68 -5 3 C-5.66 3 -6.32 3 -7 3 C-7 2.34 -7 1.68 -7 1 C-4 0 -4 0 0 0 Z " fill="#932211" transform="translate(129,171)" data-index="100"></path>
<path d="M0 0 C0.99 0 1.98 0 3 0 C3 0.66 3 1.32 3 2 C3.66 2.33 4.32 2.66 5 3 C4.34 3 3.68 3 3 3 C3 3.99 3 4.98 3 6 C2.01 6 1.02 6 0 6 C0 4.02 0 2.04 0 0 Z " fill="#8F7C29" transform="translate(229,130)" data-index="101"></path>
<path d="M0 0 C0.66 0.99 1.32 1.98 2 3 C-1.14624993 3.26218749 -2.61837017 3.24754367 -5.3125 1.5 C-5.869375 1.005 -6.42625 0.51 -7 0 C-3.86559131 -1.0448029 -2.97903963 -1.15317663 0 0 Z " fill="#D5C778" transform="translate(111,200)" data-index="102"></path>
<path d="M0 0 C0 0.99 0 1.98 0 3 C-2.97 3 -5.94 3 -9 3 C-6.15236477 0.15236477 -3.96383452 0 0 0 Z " fill="#AEA26C" transform="translate(80,176)" data-index="103"></path>
<path d="M0 0 C0.99 0.33 1.98 0.66 3 1 C3.33 2.98 3.66 4.96 4 7 C2.68 7 1.36 7 0 7 C0 4.69 0 2.38 0 0 Z " fill="#C09C4A" transform="translate(215,164)" data-index="104"></path>
<path d="M0 0 C0.99 0.66 1.98 1.32 3 2 C2.34 2 1.68 2 1 2 C0.34 4.31 -0.32 6.62 -1 9 C-1.66 9 -2.32 9 -3 9 C-2.01 6.03 -1.02 3.06 0 0 Z " fill="#D0C37E" transform="translate(131,135)" data-index="105"></path>
<path d="M0 0 C1.65 0 3.3 0 5 0 C5 0.66 5 1.32 5 2 C5.99 2.33 6.98 2.66 8 3 C5.36 3 2.72 3 0 3 C0 2.01 0 1.02 0 0 Z " fill="#8D8458" transform="translate(224,210)" data-index="106"></path>
<path d="M0 0 C1.5 1.1875 1.5 1.1875 3 3 C3.1875 5.6875 3.1875 5.6875 3 8 C2.01 8 1.02 8 0 8 C0 5.36 0 2.72 0 0 Z " fill="#D2C069" transform="translate(227,136)" data-index="107"></path>
<path d="M0 0 C1.65 0 3.3 0 5 0 C5 0.66 5 1.32 5 2 C5.66 2 6.32 2 7 2 C7 2.66 7 3.32 7 4 C5.35 3.67 3.7 3.34 2 3 C2 2.34 2 1.68 2 1 C1.34 0.67 0.68 0.34 0 0 Z " fill="#A01522" transform="translate(208,172)" data-index="108"></path>
<path d="M0 0 C0.99 0 1.98 0 3 0 C2.67 3.3 2.34 6.6 2 10 C1.34 10 0.68 10 0 10 C0 6.7 0 3.4 0 0 Z " fill="#D1BD72" transform="translate(126,160)" data-index="109"></path>
<path d="M0 0 C0.33 0 0.66 0 1 0 C1 3.63 1 7.26 1 11 C-1.62962963 7.05555556 -1.62962963 7.05555556 -2 4 C-1.0625 1.75 -1.0625 1.75 0 0 Z " fill="#C5B460" transform="translate(232,149)" data-index="110"></path>
</svg>